<svg preserveAspectRatio="none" width="100%" height="100%" overflow="visible" style="display: block;" viewBox="0 0 16 15.3607" fill="none" xmlns="http://www.w3.org/2000/svg">
<path id="Vector" fill-rule="evenodd" clip-rule="evenodd" d="M6.18 9.86L11.4987 5.92867C11.7593 5.73533 12.132 5.81067 12.2567 6.11C12.91 7.68933 12.618 9.58667 11.3167 10.8893C10.016 12.192 8.20533 12.4773 6.55067 11.8267L4.74333 12.6647C7.336 14.4387 10.484 14 12.4513 12.0293C14.012 10.4667 14.4953 8.33667 14.0433 6.416L14.0473 6.42067C13.392 3.59933 14.2087 2.47133 15.8807 0.165333C15.9207 0.110667 15.9607 0.056 16 0L13.7993 2.20333V2.19667L6.178 9.86133M5.082 10.8153C3.22067 9.03533 3.542 6.28133 5.12933 4.69267C6.30333 3.51733 8.22733 3.03733 9.90667 3.74267L11.71 2.90933C11.3352 2.63361 10.9251 2.40939 10.4907 2.24267C9.39853 1.79567 8.19859 1.6816 7.04179 1.91481C5.88499 2.14802 4.82297 2.71809 3.98933 3.55333C2.30067 5.244 1.76933 7.844 2.68133 10.0627C3.36267 11.7207 2.246 12.8933 1.12133 14.0773C0.722 14.4973 0.322 14.9167 0 15.3607L5.08 10.8173" fill="var(--fill-0, #171717)"/>
</svg>
