<svg preserveAspectRatio="none" width="100%" height="100%" overflow="visible" style="display: block;" viewBox="0 0 16 15.858" fill="none" xmlns="http://www.w3.org/2000/svg">
<path id="Vector" fill-rule="evenodd" clip-rule="evenodd" d="M6.13667 5.772V4.26533C6.13667 4.13867 6.18467 4.04333 6.29533 3.98L9.324 2.236C9.73667 1.998 10.228 1.88733 10.7353 1.88733C12.638 1.88733 13.8433 3.362 13.8433 4.93133C13.8433 5.04267 13.8433 5.16933 13.8273 5.296L10.6873 3.45667C10.6021 3.40238 10.5031 3.37355 10.402 3.37355C10.3009 3.37355 10.2019 3.40238 10.1167 3.45667L6.13667 5.772ZM13.2093 11.6387V8.04C13.2093 7.818 13.114 7.66 12.9233 7.54867L8.94333 5.23333L10.2433 4.488C10.2904 4.457 10.3456 4.44048 10.402 4.44048C10.4584 4.44048 10.5136 4.457 10.5607 4.488L13.5893 6.23267C14.462 6.73933 15.0487 7.818 15.0487 8.86467C15.0487 10.07 14.3353 11.18 13.2087 11.64L13.2093 11.6387ZM5.20133 8.46867L3.90133 7.70733C3.79 7.644 3.742 7.54867 3.742 7.422V3.93267C3.742 2.236 5.042 0.951333 6.80267 0.951333C7.46933 0.951333 8.08733 1.17333 8.61067 1.57L5.48667 3.378C5.29667 3.48867 5.20133 3.64733 5.20133 3.86933V8.468V8.46867ZM8 10.0853L6.13667 9.03867V6.81867L8 5.772L9.86333 6.81867V9.03867L8 10.0853ZM9.19733 14.9053C8.53067 14.9053 7.91267 14.684 7.38933 14.2873L10.5133 12.4793C10.7033 12.3687 10.7987 12.21 10.7987 11.988V7.38933L12.1147 8.15067C12.226 8.214 12.2733 8.30933 12.2733 8.436V11.9247C12.2733 13.6213 10.9573 14.9053 9.19733 14.9053ZM5.43933 11.37L2.41 9.62533C1.538 9.118 0.951333 8.04 0.951333 6.99333C0.949278 6.39861 1.12474 5.81681 1.45526 5.32239C1.78579 4.82798 2.25633 4.44344 2.80667 4.218V7.83333C2.80667 8.05533 2.902 8.214 3.092 8.32533L7.05667 10.6247L5.75667 11.37C5.70959 11.4011 5.65441 11.4176 5.598 11.4176C5.54159 11.4176 5.48641 11.4011 5.43933 11.37ZM5.26467 13.97C3.47267 13.97 2.15667 12.6227 2.15667 10.9573C2.15667 10.8307 2.17267 10.704 2.188 10.5773L5.312 12.384C5.50267 12.4953 5.69267 12.4953 5.88267 12.384L9.86267 10.0853V11.592C9.86267 11.7187 9.816 11.814 9.70467 11.8773L6.676 13.6213C6.26333 13.8593 5.772 13.97 5.26467 13.97ZM9.19733 15.8567C10.111 15.8567 10.9967 15.5412 11.7046 14.9635C12.4124 14.3857 12.899 13.5812 13.082 12.686C14.858 12.226 16 10.56 16 8.864C16 7.754 15.5247 6.676 14.668 5.89867C14.7473 5.56533 14.7947 5.23267 14.7947 4.9C14.7947 2.63267 12.9553 0.935333 10.8307 0.935333C10.4027 0.935333 9.99067 0.998667 9.57733 1.142C8.83733 0.413606 7.84167 0.0037124 6.80333 4.28277e-09C5.88953 -4.2452e-05 5.00377 0.315577 4.2959 0.893462C3.58803 1.47135 3.10152 2.27602 2.91867 3.17133C1.142 3.63133 0 5.29667 0 6.99333C0 8.104 0.475333 9.182 1.332 9.95867C1.25267 10.292 1.20533 10.6253 1.20533 10.958C1.20533 13.2253 3.04467 14.922 5.16933 14.922C5.59733 14.922 6.00933 14.8587 6.42267 14.716C7.16275 15.4447 8.15874 15.8546 9.19733 15.858V15.8567Z" fill="var(--fill-0, #171717)"/>
</svg>
