<svg preserveAspectRatio="none" width="100%" height="100%" overflow="visible" style="display: block;" viewBox="0 0 20 20" fill="none" xmlns="http://www.w3.org/2000/svg">
<path d="M16.93 4.48c-.66-.31-1.36-.54-2.08-.69-.17-.35-.37-.69-.6-1.01-.44-.58-1.01-.98-1.67-1.17-.66-.19-1.35-.16-2 .08-.65.24-1.22.66-1.65 1.21-.22.3-.4.62-.54.96-.72.15-1.42.38-2.08.69-1.01.47-1.72 1.18-2.01 2.06-.14.45-.17.92-.09 1.38.08.46.26.89.52 1.27.52.76 1.28 1.33 2.16 1.62-.03.35-.04.7-.03 1.05.02.58.12 1.15.3 1.7.39 1.18 1.16 2.18 2.18 2.84.51.33 1.07.57 1.66.71.59.14 1.2.17 1.8.09.6-.08 1.18-.27 1.71-.56.53-.29 1-.68 1.39-1.15.39-.47.69-1.01.88-1.58.19-.57.27-1.18.24-1.78-.01-.35-.05-.7-.11-1.04.88-.29 1.64-.86 2.16-1.62.26-.38.44-.81.52-1.27.08-.46.05-.93-.09-1.38-.29-.88-1-1.59-2.01-2.06ZM10 14.58c-2.1 0-3.8-1.45-3.8-3.25 0-1.79 1.7-3.25 3.8-3.25s3.8 1.46 3.8 3.25c0 1.8-1.7 3.25-3.8 3.25Z" fill="var(--fill-0, #0A0A0A)"/>
</svg>
