<svg preserveAspectRatio="none" width="100%" height="100%" overflow="visible" style="display: block;" viewBox="0 0 20 20" fill="none" xmlns="http://www.w3.org/2000/svg">
<path d="M10.002 1.667c-4.602 0-8.335 3.733-8.335 8.335 0 3.667 2.377 6.777 5.677 7.877.44.081.602-.19.602-.422 0-.208-.008-.9-.012-1.635-2.306.5-2.794-1.11-2.794-1.11-.377-.958-.92-1.213-.92-1.213-.752-.515.057-.504.057-.504.833.059 1.27.856 1.27.856.74 1.269 1.94.902 2.413.69.075-.535.289-.902.525-1.11-1.84-.21-3.775-.92-3.775-4.102 0-.906.323-1.646.854-2.227-.086-.21-.37-1.052.081-2.19 0 0 .697-.223 2.285.85a7.93 7.93 0 0 1 2.085-.281c.708.003 1.42.096 2.085.281 1.587-1.073 2.283-.85 2.283-.85.452 1.138.168 1.98.082 2.19.532.581.853 1.321.853 2.227 0 3.19-1.94 3.888-3.788 4.094.298.258.563.765.563 1.542 0 1.113-.01 2.01-.01 2.285 0 .235.16.508.607.421 3.294-1.104 5.666-4.21 5.666-7.873 0-4.602-3.735-8.335-8.34-8.335Z" fill="var(--fill-0, #0A0A0A)"/>
</svg>
