<svg preserveAspectRatio="none" width="100%" height="100%" overflow="visible" style="display: block;" viewBox="0 0 14 16" fill="none" xmlns="http://www.w3.org/2000/svg">
<path id="Vector" d="M12.19 0V4.848H14V11.7467H12.0433V16L7.352 11.8707V15.9673H6.62467V11.866L1.928 16V11.69H0V4.792H1.92267V0L6.62467 4.32933V0.126667H7.35133V4.45333L12.19 0ZM7.352 6.02933V10.9087L11.316 14.398V9.62667L7.352 6.02933ZM6.61933 5.976L2.65533 9.57467V14.398L6.61933 10.9087V5.97667V5.976ZM12.0433 11.0293H13.2727V5.566H7.97333L12.0433 9.25933V11.0293ZM6.05533 5.50933H0.726667V10.9727H1.92667V9.25533L6.05467 5.50867L6.05533 5.50933ZM2.65 1.65067V4.79067H6.06L2.65 1.65067ZM11.4627 1.65067L8.05267 4.79067H11.4627V1.65067Z" fill="var(--fill-0, #171717)"/>
</svg>
